<svg version="1.1" id="Layer_1" xmlns="http://www.w3.org/2000/svg" xmlns:xlink="http://www.w3.org/1999/xlink" x="0px" y="0px"
	 width="100%" viewBox="0 0 500 500" enable-background="new 0 0 500 500" xml:space="preserve">
<path fill="#000000" opacity="1.000000" stroke="none" 
	d="
M242.000000,501.000000 
	C161.333359,501.000000 81.166702,501.000000 1.000043,501.000000 
	C1.000029,334.333405 1.000029,167.666779 1.000014,1.000133 
	C167.666565,1.000088 334.333130,1.000088 500.999756,1.000044 
	C500.999847,167.666519 500.999847,334.333038 500.999939,500.999786 
	C414.833344,501.000000 328.666656,501.000000 242.000000,501.000000 
M303.963623,355.458771 
	C307.883240,353.208557 311.860626,351.052582 315.711914,348.690979 
	C328.750336,340.695923 339.877533,330.366699 348.882812,318.205994 
	C355.415283,309.384674 360.825226,299.541840 365.472198,289.565918 
	C370.528503,278.711273 372.569519,266.927307 374.424316,254.956985 
	C376.463715,241.795135 375.450470,229.038101 373.350342,216.379532 
	C371.699982,206.432220 368.360138,196.575806 364.451202,187.231003 
	C355.592438,166.052994 341.308014,148.799210 322.926575,135.184433 
	C310.976624,126.333313 298.096069,118.918488 283.280121,115.735878 
	C274.000885,113.742599 264.754333,111.086739 255.360168,110.284554 
	C246.209412,109.503143 236.796875,110.011169 227.670120,111.231133 
	C218.788773,112.418282 209.699112,114.193344 201.470428,117.580002 
	C190.904053,121.928787 180.891861,127.784134 171.032043,133.648102 
	C159.345963,140.598221 149.953339,150.340164 142.139267,161.322311 
	C136.318512,169.502991 130.993393,178.188354 126.666733,187.232224 
	C123.181625,194.517014 121.054337,202.564926 119.193680,210.478577 
	C117.611969,217.205841 116.910858,224.202255 116.478142,231.120743 
	C116.007202,238.650162 115.350136,246.369980 116.466721,253.750763 
	C118.285629,265.773895 120.968666,277.603241 125.775017,289.057770 
	C131.932510,303.732361 140.453003,316.597504 150.934540,328.302765 
	C159.066513,337.384186 168.993576,344.216705 179.199387,350.852203 
	C195.211365,361.262695 212.944702,366.805359 231.469498,368.668884 
	C256.377899,371.174683 280.620972,367.134918 303.963623,355.458771 
z"/>
<path fill="#DDDEDC" opacity="1.000000" stroke="none" 
	d="
M303.650116,355.679871 
	C280.620972,367.134918 256.377899,371.174683 231.469498,368.668884 
	C212.944702,366.805359 195.211365,361.262695 179.199387,350.852203 
	C168.993576,344.216705 159.066513,337.384186 150.934540,328.302765 
	C140.453003,316.597504 131.932510,303.732361 125.775017,289.057770 
	C120.968666,277.603241 118.285629,265.773895 116.466721,253.750763 
	C115.350136,246.369980 116.007202,238.650162 116.478142,231.120743 
	C116.910858,224.202255 117.611969,217.205841 119.193680,210.478577 
	C121.054337,202.564926 123.181625,194.517014 126.666733,187.232224 
	C130.993393,178.188354 136.318512,169.502991 142.139267,161.322311 
	C149.953339,150.340164 159.345963,140.598221 171.032043,133.648102 
	C180.891861,127.784134 190.904053,121.928787 201.470428,117.580002 
	C209.699112,114.193344 218.788773,112.418282 227.670120,111.231133 
	C236.796875,110.011169 246.209412,109.503143 255.360168,110.284554 
	C264.754333,111.086739 274.000885,113.742599 283.280121,115.735878 
	C298.096069,118.918488 310.976624,126.333313 322.926575,135.184433 
	C341.308014,148.799210 355.592438,166.052994 364.451202,187.231003 
	C368.360138,196.575806 371.699982,206.432220 373.350342,216.379532 
	C375.450470,229.038101 376.463715,241.795135 374.424316,254.956985 
	C372.569519,266.927307 370.528503,278.711273 365.472198,289.565918 
	C360.825226,299.541840 355.415283,309.384674 348.882812,318.205994 
	C339.877533,330.366699 328.750336,340.695923 315.711914,348.690979 
	C311.860626,351.052582 307.883240,353.208557 303.650116,355.679871 
M193.301666,205.874939 
	C182.202698,227.385696 183.085922,248.545135 197.218231,268.057007 
	C210.965576,287.037354 230.389160,294.933716 253.654526,291.229340 
	C280.352173,286.978455 300.560028,264.473297 302.110901,238.336594 
	C303.737061,210.931259 287.083801,186.410919 261.563629,178.634567 
	C234.935318,170.520554 207.829620,181.151932 193.301666,205.874939 
M195.360840,353.201965 
	C246.906998,375.745819 301.590027,359.516174 331.801453,328.959259 
	C319.634979,313.449036 304.461945,303.103424 284.179138,302.764771 
	C258.538971,302.336609 232.881210,302.351044 207.240448,302.761993 
	C186.961594,303.086975 171.779694,313.364929 159.351349,329.113251 
	C169.870819,339.486420 181.753250,346.957062 195.360840,353.201965 
z"/>
<path fill="#4E4E4E" opacity="1.000000" stroke="none" 
	d="
M193.499756,205.563904 
	C207.829620,181.151932 234.935318,170.520554 261.563629,178.634567 
	C287.083801,186.410919 303.737061,210.931259 302.110901,238.336594 
	C300.560028,264.473297 280.352173,286.978455 253.654526,291.229340 
	C230.389160,294.933716 210.965576,287.037354 197.218231,268.057007 
	C183.085922,248.545135 182.202698,227.385696 193.499756,205.563904 
z"/>
<path fill="#4E4E4E" opacity="1.000000" stroke="none" 
	d="
M195.007996,353.069305 
	C181.753250,346.957062 169.870819,339.486420 159.351349,329.113251 
	C171.779694,313.364929 186.961594,303.086975 207.240448,302.761993 
	C232.881210,302.351044 258.538971,302.336609 284.179138,302.764771 
	C304.461945,303.103424 319.634979,313.449036 331.801453,328.959259 
	C301.590027,359.516174 246.906998,375.745819 195.007996,353.069305 
z"/>
</svg>