<?xml version="1.0" standalone="no"?>
<!DOCTYPE svg PUBLIC "-//W3C//DTD SVG 20010904//EN"
 "http://www.w3.org/TR/2001/REC-SVG-20010904/DTD/svg10.dtd">
<svg version="1.0" xmlns="http://www.w3.org/2000/svg"
 width="500.000000pt" height="500.000000pt" viewBox="0 0 500.000000 500.000000"
 preserveAspectRatio="xMidYMid meet">

<g transform="translate(0.000000,500.000000) scale(0.100000,-0.100000)"
fill="#000000" stroke="none">
<path d="M2400 4229 c-175 -30 -323 -174 -361 -349 -37 -173 41 -370 185 -466
182 -120 421 -98 573 53 202 202 168 541 -71 695 -95 61 -215 86 -326 67z"/>
<path d="M2171 3159 c-24 -71 -8 -219 24 -219 48 0 128 25 172 55 48 32 53 38
53 73 0 35 -4 40 -53 70 -60 36 -106 52 -153 52 -27 0 -34 -5 -43 -31z"/>
<path d="M2899 3163 c-5 -15 -21 -70 -35 -123 -14 -52 -29 -106 -33 -120 -5
-14 -14 -44 -20 -67 -10 -36 -21 -49 -66 -78 -30 -19 -55 -38 -55 -42 0 -5
-17 -26 -38 -48 -21 -22 -48 -55 -61 -72 -12 -18 -33 -36 -47 -39 l-24 -6 0
-689 0 -690 48 5 c26 3 76 8 112 11 144 14 345 72 485 142 39 19 74 38 79 43
10 10 -57 137 -112 215 -20 28 -68 84 -107 125 l-72 75 -7 100 c-6 96 4 225
23 290 5 17 17 85 26 151 20 138 15 206 -26 329 -25 75 -29 148 -19 379 5 116
5 119 -18 127 -19 7 -24 4 -33 -18z m-15 -317 c-3 -14 -10 -26 -15 -26 -11 0
-11 3 1 36 13 33 23 26 14 -10z"/>
<path d="M1951 3036 c-80 -80 -149 -142 -155 -139 -6 3 -7 2 -3 -2 4 -5 -25
-42 -64 -81 l-72 -73 36 -21 c43 -25 50 -38 10 -16 -63 34 -63 30 12 107 l70
72 -77 -68 c-43 -38 -78 -72 -78 -76 0 -5 36 -29 80 -55 44 -25 80 -49 80 -52
0 -4 -29 -36 -65 -72 l-64 -65 255 -410 c141 -225 278 -444 304 -485 26 -41
81 -129 122 -195 41 -66 87 -140 102 -163 15 -24 30 -42 33 -39 2 3 -4 18 -15
34 -21 31 -67 104 -234 373 -134 215 -130 210 -125 210 6 0 47 -64 222 -345
75 -121 141 -224 146 -229 5 -6 9 8 9 36 0 29 -15 88 -41 160 -309 852 -427
1411 -356 1686 8 28 14 52 13 52 -1 0 -66 -65 -145 -144z m-151 -382 c0 -2
-13 2 -30 11 -16 9 -30 18 -30 21 0 2 14 -2 30 -11 17 -9 30 -18 30 -21z m-40
-89 l-73 -73 23 -32 c12 -17 20 -33 17 -36 -2 -3 -15 11 -27 31 l-23 37 72 72
c39 40 68 76 64 81 -4 4 -2 5 6 0 9 -5 -6 -27 -59 -80z m-10 -165 c0 -6 20
-41 44 -78 123 -191 224 -357 219 -362 -3 -3 -7 0 -10 6 -2 5 -55 93 -119 195
-63 101 -124 199 -136 217 -11 17 -15 32 -9 32 6 0 11 -5 11 -10z m316 -512
c8 -16 13 -28 11 -28 -6 0 -57 79 -57 87 1 10 28 -25 46 -59z"/>
<path d="M2440 3070 c0 -23 4 -30 20 -30 16 0 20 7 20 30 0 23 -4 30 -20 30
-16 0 -20 -7 -20 -30z"/>
<path d="M2458 2648 c-6 -17 1 -38 13 -38 5 0 9 11 9 25 0 26 -14 34 -22 13z"/>
<path d="M2460 2374 c-11 -12 -10 -18 3 -32 16 -15 17 -14 17 16 0 36 -2 38
-20 16z"/>
<path d="M2461 2097 c-8 -10 -7 -19 4 -33 14 -18 14 -17 15 14 0 36 -2 38 -19
19z"/>
<path d="M2461 1836 c-12 -14 -5 -46 10 -46 5 0 9 14 9 30 0 34 -3 36 -19 16z"/>
</g>
</svg>
