<svg xmlns="http://www.w3.org/2000/svg" xmlns:v="https://svgstorm.com"
viewBox = "0 0 500 500"
width="500"
height="500">
<g fill="None" fill-opacity="0.0" stroke="#000000" stroke-opacity="0.00" stroke-width="0.3"><path d="
M 0.00 500.00 
L 500.00 500.00
L 500.00 0.00
L 0.00 0.00
L 0.00 500.00
M 252.00 167.00 
C 248.83 167.52 246.13 167.56 243.00 167.00
C 219.35 162.76 200.54 144.04 202.00 119.00 C 203.46 93.96 223.32 75.88 248.00 76.00 C 272.68 76.12 292.35 93.48 293.99 119.01 C 295.64 144.53 275.97 163.11 252.00 167.00
M 243.00 198.00 
C 235.13 202.86 226.89 207.44 217.00 207.00
C 214.24 198.46 214.24 188.56 217.00 180.00
C 227.93 179.34 245.53 184.22 243.00 198.00
M 295.00 209.00 
C 295.00 214.02 294.05 220.09 295.00 225.00
C 303.66 239.26 301.98 258.28 299.00 274.00 C 296.02 289.72 289.95 311.94 301.75 324.25 C 313.56 336.56 320.42 346.97 326.00 362.00
C 303.25 373.19 279.40 382.04 253.00 381.00
C 247.84 378.50 251.77 367.21 251.00 361.00 C 250.23 354.79 251.26 344.07 251.00 337.00 C 250.74 329.93 250.97 321.66 250.80 314.75 C 250.63 307.85 251.34 298.17 251.00 291.00
C 245.81 301.82 240.62 285.04 251.00 289.00
C 251.67 273.50 249.67 256.68 252.00 242.00
C 252.54 241.73 254.38 241.96 255.00 242.00
C 254.93 242.02 256.96 240.05 257.00 240.00
C 262.19 234.61 263.89 227.35 271.25 223.25 C 278.61 219.15 281.43 212.50 282.99 203.99 C 284.55 195.49 287.92 187.21 291.00 180.00
C 303.75 183.71 292.78 199.29 295.00 209.00
M 207.00 202.00 
C 206.78 205.23 206.78 208.77 207.00 212.00
C 209.03 241.77 218.30 271.17 225.92 299.08 C 233.55 326.99 247.37 352.19 249.00 381.00
C 241.53 377.26 238.25 366.96 233.25 359.75 C 228.24 352.54 223.79 344.33 219.00 337.00
C 218.84 336.56 219.00 336.00 219.00 336.00
C 215.17 332.09 212.88 326.66 210.00 322.00
C 205.58 314.86 201.37 307.98 197.00 301.00
C 194.67 297.27 191.71 294.36 190.00 290.00
C 189.83 289.57 190.00 289.00 190.00 289.00
C 187.67 287.52 185.84 283.86 184.00 281.00
C 181.47 277.08 179.33 272.81 177.00 269.00
C 174.15 264.35 166.06 256.78 166.00 251.00
C 165.96 247.21 175.70 237.96 177.00 236.00
C 174.52 231.99 161.95 231.49 162.00 226.00
C 162.04 221.17 171.91 217.38 174.70 213.70 C 177.49 210.02 184.61 204.42 188.00 201.00
C 188.76 200.24 189.14 199.65 190.00 199.00
C 191.08 198.18 193.01 197.74 194.00 197.00
C 199.35 191.77 203.36 183.89 211.00 181.00
C 208.36 187.60 208.03 194.91 207.00 202.00
M 249.00 197.00 
C 244.73 199.12 241.30 192.74 245.11 190.11 C 248.92 187.47 249.82 193.85 249.00 197.00
M 249.00 233.00 
C 252.22 246.28 237.49 234.24 249.00 233.00
M 250.00 261.00 
C 249.24 263.29 249.19 265.81 248.00 268.00
C 242.18 267.07 244.29 259.24 250.00 261.00
M 249.00 322.00 
C 237.42 319.86 252.99 309.55 249.00 322.00 Z"/>
</g>
<g fill="None" fill-opacity="0.0" stroke="#FFFFFF" stroke-opacity="0.96" stroke-width="0.3"><path d="
M 243.00 167.00 
C 245.31 166.93 249.73 166.90 252.00 167.00
C 275.97 163.11 295.64 144.53 293.99 119.01 C 292.35 93.48 272.68 76.12 248.00 76.00 C 223.32 75.88 203.46 93.96 202.00 119.00 C 200.54 144.04 219.35 162.76 243.00 167.00 Z"/>
</g>
<g fill="None" fill-opacity="0.0" stroke="#FFFFFF" stroke-opacity="0.33" stroke-width="0.3"><path d="
M 243.00 167.00 
C 246.13 167.56 248.83 167.52 252.00 167.00
C 249.73 166.90 245.31 166.93 243.00 167.00 Z"/>
</g>
<g fill="None" fill-opacity="0.0" stroke="#FFFFFF" stroke-opacity="0.87" stroke-width="0.3"><path d="
M 243.00 198.00 
C 245.53 184.22 227.93 179.34 217.00 180.00
C 214.24 188.56 214.24 198.46 217.00 207.00
C 226.89 207.44 235.13 202.86 243.00 198.00 Z"/>
</g>
<g fill="None" fill-opacity="0.0" stroke="#FFFFFF" stroke-opacity="0.96" stroke-width="0.3"><path d="
M 257.00 240.00 
C 256.40 241.04 257.25 242.16 255.00 242.00
C 254.38 241.96 252.54 241.73 252.00 242.00
C 254.33 287.83 252.33 334.75 253.00 381.00
C 279.40 382.04 303.25 373.19 326.00 362.00
C 320.42 346.97 313.56 336.56 301.75 324.25 C 289.95 311.94 296.02 289.72 299.00 274.00 C 301.98 258.28 303.66 239.26 295.00 225.00
C 292.39 220.70 293.93 214.06 295.00 209.00
C 292.78 199.29 303.75 183.71 291.00 180.00
C 287.92 187.21 284.55 195.49 282.99 203.99 C 281.43 212.50 278.61 219.15 271.25 223.25 C 263.89 227.35 262.19 234.61 257.00 240.00
M 296.00 189.00 
C 297.26 196.32 293.06 193.99 296.00 189.00
M 289.00 218.00 
C 284.60 219.04 286.37 214.23 287.00 212.00
C 290.23 211.65 288.57 216.11 289.00 218.00 Z"/>
</g>
<g fill="None" fill-opacity="0.0" stroke="#FFFFFF" stroke-opacity="0.91" stroke-width="0.3"><path d="
M 194.00 197.00 
C 192.72 198.25 191.49 198.19 190.00 199.00
C 189.14 199.65 188.76 200.24 188.00 201.00
C 184.44 210.35 172.00 218.37 166.00 227.00
C 164.92 225.07 164.09 225.54 162.00 226.00
C 161.95 231.49 174.52 231.99 177.00 236.00
C 180.01 231.46 179.75 235.83 183.00 235.00
C 179.88 239.46 172.18 247.02 166.00 251.00
C 166.06 256.78 174.15 264.35 177.00 269.00
C 177.00 268.74 178.37 266.17 179.00 266.00
C 182.27 272.03 187.77 278.44 184.00 281.00
C 185.84 283.86 187.67 287.52 190.00 289.00
C 189.56 287.71 188.70 284.66 190.00 284.00
C 191.91 286.32 191.42 287.93 194.00 290.00
C 192.37 290.01 191.49 288.72 190.00 290.00
C 191.71 294.36 194.67 297.27 197.00 301.00
C 197.23 299.92 199.22 299.61 200.00 299.00
C 201.99 302.68 205.23 309.01 206.06 312.08 C 206.90 315.16 214.89 317.56 210.00 322.00
C 212.88 326.66 215.17 332.09 219.00 336.00
C 221.08 332.77 222.71 335.72 224.00 338.00
C 221.90 338.98 220.76 338.37 219.00 337.00
C 223.79 344.33 228.24 352.54 233.25 359.75 C 238.25 366.96 241.53 377.26 249.00 381.00
C 247.37 352.19 233.55 326.99 225.92 299.08 C 218.30 271.17 209.03 241.77 207.00 212.00
C 206.40 210.04 205.24 209.99 205.00 207.00 C 204.77 204.00 206.62 203.21 207.00 202.00
C 208.03 194.91 208.36 187.60 211.00 181.00
C 203.36 183.89 199.35 191.77 194.00 197.00
M 178.00 232.00 
C 175.18 235.21 174.26 229.11 178.00 232.00
M 198.00 298.00 
C 192.65 298.89 197.15 292.45 198.00 298.00
M 227.00 349.00 
C 226.11 343.65 232.55 348.15 227.00 349.00 Z"/>
</g>
<g fill="None" fill-opacity="0.0" stroke="#FFFFFF" stroke-opacity="0.65" stroke-width="0.3"><path d="
M 249.00 197.00 
C 249.82 193.85 248.92 187.47 245.11 190.11 C 241.30 192.74 244.73 199.12 249.00 197.00 Z"/>
</g>
<g fill="None" fill-opacity="0.0" stroke="#FFFFFF" stroke-opacity="0.64" stroke-width="0.3"><path d="
M 296.00 189.00 
C 293.06 193.99 297.26 196.32 296.00 189.00 Z"/>
</g>
<g fill="None" fill-opacity="0.0" stroke="#FFFFFF" stroke-opacity="0.02" stroke-width="0.3"><path d="
M 190.00 199.00 
C 191.49 198.19 192.72 198.25 194.00 197.00
C 193.01 197.74 191.08 198.18 190.00 199.00 Z"/>
</g>
<g fill="None" fill-opacity="0.0" stroke="#FFFFFF" stroke-opacity="0.41" stroke-width="0.3"><path d="
M 162.00 226.00 
C 164.09 225.54 164.92 225.07 166.00 227.00
C 172.00 218.37 184.44 210.35 188.00 201.00
C 184.61 204.42 177.49 210.02 174.70 213.70 C 171.91 217.38 162.04 221.17 162.00 226.00 Z"/>
</g>
<g fill="None" fill-opacity="0.0" stroke="#FFFFFF" stroke-opacity="0.57" stroke-width="0.3"><path d="
M 207.00 212.00 
C 206.78 208.77 206.78 205.23 207.00 202.00
C 206.62 203.21 204.77 204.00 205.00 207.00 C 205.24 209.99 206.40 210.04 207.00 212.00 Z"/>
</g>
<g fill="None" fill-opacity="0.0" stroke="#FFFFFF" stroke-opacity="0.40" stroke-width="0.3"><path d="
M 295.00 225.00 
C 294.05 220.09 295.00 214.02 295.00 209.00
C 293.93 214.06 292.39 220.70 295.00 225.00 Z"/>
</g>
<g fill="None" fill-opacity="0.0" stroke="#FFFFFF" stroke-opacity="0.42" stroke-width="0.3"><path d="
M 289.00 218.00 
C 288.57 216.11 290.23 211.65 287.00 212.00
C 286.37 214.23 284.60 219.04 289.00 218.00 Z"/>
</g>
<g fill="None" fill-opacity="0.0" stroke="#FFFFFF" stroke-opacity="0.67" stroke-width="0.3"><path d="
M 178.00 232.00 
C 174.26 229.11 175.18 235.21 178.00 232.00 Z"/>
</g>
<g fill="None" fill-opacity="0.0" stroke="#FFFFFF" stroke-opacity="0.55" stroke-width="0.3"><path d="
M 177.00 236.00 
C 175.70 237.96 165.96 247.21 166.00 251.00
C 172.18 247.02 179.88 239.46 183.00 235.00
C 179.75 235.83 180.01 231.46 177.00 236.00 Z"/>
</g>
<g fill="None" fill-opacity="0.0" stroke="#FFFFFF" stroke-opacity="0.20" stroke-width="0.3"><path d="
M 249.00 233.00 
C 237.49 234.24 252.22 246.28 249.00 233.00
M 248.00 234.00 
C 249.97 241.43 242.07 237.08 248.00 234.00 Z"/>
</g>
<g fill="None" fill-opacity="0.0" stroke="#FFFFFF" stroke-opacity="0.93" stroke-width="0.3"><path d="
M 248.00 234.00 
C 242.07 237.08 249.97 241.43 248.00 234.00 Z"/>
</g>
<g fill="None" fill-opacity="0.0" stroke="#FFFFFF" stroke-opacity="0.29" stroke-width="0.3"><path d="
M 255.00 242.00 
C 257.25 242.16 256.40 241.04 257.00 240.00
C 256.96 240.05 254.93 242.02 255.00 242.00 Z"/>
</g>
<g fill="None" fill-opacity="0.0" stroke="#FFFFFF" stroke-opacity="0.39" stroke-width="0.3"><path d="
M 253.00 381.00 
C 252.33 334.75 254.33 287.83 252.00 242.00
C 249.67 256.68 251.67 273.50 251.00 289.00
C 240.62 285.04 245.81 301.82 251.00 291.00
C 251.34 298.17 250.63 307.85 250.80 314.75 C 250.97 321.66 250.74 329.93 251.00 337.00 C 251.26 344.07 250.23 354.79 251.00 361.00 C 251.77 367.21 247.84 378.50 253.00 381.00 Z"/>
</g>
<g fill="None" fill-opacity="0.0" stroke="#FFFFFF" stroke-opacity="0.45" stroke-width="0.3"><path d="
M 250.00 261.00 
C 244.29 259.24 242.18 267.07 248.00 268.00
C 249.19 265.81 249.24 263.29 250.00 261.00 Z"/>
</g>
<g fill="None" fill-opacity="0.0" stroke="#FFFFFF" stroke-opacity="0.55" stroke-width="0.3"><path d="
M 177.00 269.00 
C 179.33 272.81 181.47 277.08 184.00 281.00
C 187.77 278.44 182.27 272.03 179.00 266.00
C 178.37 266.17 177.00 268.74 177.00 269.00 Z"/>
</g>
<g fill="None" fill-opacity="0.0" stroke="#FFFFFF" stroke-opacity="0.66" stroke-width="0.3"><path d="
M 190.00 289.00 
C 190.00 289.00 189.83 289.57 190.00 290.00
C 191.49 288.72 192.37 290.01 194.00 290.00
C 191.42 287.93 191.91 286.32 190.00 284.00
C 188.70 284.66 189.56 287.71 190.00 289.00 Z"/>
</g>
<g fill="None" fill-opacity="0.0" stroke="#FFFFFF" stroke-opacity="0.60" stroke-width="0.3"><path d="
M 198.00 298.00 
C 197.15 292.45 192.65 298.89 198.00 298.00 Z"/>
</g>
<g fill="None" fill-opacity="0.0" stroke="#FFFFFF" stroke-opacity="0.55" stroke-width="0.3"><path d="
M 197.00 301.00 
C 201.37 307.98 205.58 314.86 210.00 322.00
C 214.89 317.56 206.90 315.16 206.06 312.08 C 205.23 309.01 201.99 302.68 200.00 299.00
C 199.22 299.61 197.23 299.92 197.00 301.00 Z"/>
</g>
<g fill="None" fill-opacity="0.0" stroke="#FFFFFF" stroke-opacity="0.44" stroke-width="0.3"><path d="
M 249.00 322.00 
C 252.99 309.55 237.42 319.86 249.00 322.00 Z"/>
</g>
<g fill="None" fill-opacity="0.0" stroke="#FFFFFF" stroke-opacity="0.68" stroke-width="0.3"><path d="
M 219.00 336.00 
C 219.00 336.00 218.84 336.56 219.00 337.00
C 220.76 338.37 221.90 338.98 224.00 338.00
C 222.71 335.72 221.08 332.77 219.00 336.00 Z"/>
</g>
<g fill="None" fill-opacity="0.0" stroke="#FFFFFF" stroke-opacity="0.65" stroke-width="0.3"><path d="
M 227.00 349.00 
C 232.55 348.15 226.11 343.65 227.00 349.00 Z"/>
</g>
<g fill="#000000" fill-opacity="0.00" stroke="None">
<path d="
M 0.00 500.00 
L 500.00 500.00
L 500.00 0.00
L 0.00 0.00
L 0.00 500.00
M 252.00 167.00 
C 248.83 167.52 246.13 167.56 243.00 167.00
C 219.35 162.76 200.54 144.04 202.00 119.00 C 203.46 93.96 223.32 75.88 248.00 76.00 C 272.68 76.12 292.35 93.48 293.99 119.01 C 295.64 144.53 275.97 163.11 252.00 167.00
M 243.00 198.00 
C 235.13 202.86 226.89 207.44 217.00 207.00
C 214.24 198.46 214.24 188.56 217.00 180.00
C 227.93 179.34 245.53 184.22 243.00 198.00
M 295.00 209.00 
C 295.00 214.02 294.05 220.09 295.00 225.00
C 303.66 239.26 301.98 258.28 299.00 274.00 C 296.02 289.72 289.95 311.94 301.75 324.25 C 313.56 336.56 320.42 346.97 326.00 362.00
C 303.25 373.19 279.40 382.04 253.00 381.00
C 247.84 378.50 251.77 367.21 251.00 361.00 C 250.23 354.79 251.26 344.07 251.00 337.00 C 250.74 329.93 250.97 321.66 250.80 314.75 C 250.63 307.85 251.34 298.17 251.00 291.00
C 245.81 301.82 240.62 285.04 251.00 289.00
C 251.67 273.50 249.67 256.68 252.00 242.00
C 252.54 241.73 254.38 241.96 255.00 242.00
C 254.93 242.02 256.96 240.05 257.00 240.00
C 262.19 234.61 263.89 227.35 271.25 223.25 C 278.61 219.15 281.43 212.50 282.99 203.99 C 284.55 195.49 287.92 187.21 291.00 180.00
C 303.75 183.71 292.78 199.29 295.00 209.00
M 207.00 202.00 
C 206.78 205.23 206.78 208.77 207.00 212.00
C 209.03 241.77 218.30 271.17 225.92 299.08 C 233.55 326.99 247.37 352.19 249.00 381.00
C 241.53 377.26 238.25 366.96 233.25 359.75 C 228.24 352.54 223.79 344.33 219.00 337.00
C 218.84 336.56 219.00 336.00 219.00 336.00
C 215.17 332.09 212.88 326.66 210.00 322.00
C 205.58 314.86 201.37 307.98 197.00 301.00
C 194.67 297.27 191.71 294.36 190.00 290.00
C 189.83 289.57 190.00 289.00 190.00 289.00
C 187.67 287.52 185.84 283.86 184.00 281.00
C 181.47 277.08 179.33 272.81 177.00 269.00
C 174.15 264.35 166.06 256.78 166.00 251.00
C 165.96 247.21 175.70 237.96 177.00 236.00
C 174.52 231.99 161.95 231.49 162.00 226.00
C 162.04 221.17 171.91 217.38 174.70 213.70 C 177.49 210.02 184.61 204.42 188.00 201.00
C 188.76 200.24 189.14 199.65 190.00 199.00
C 191.08 198.18 193.01 197.74 194.00 197.00
C 199.35 191.77 203.36 183.89 211.00 181.00
C 208.36 187.60 208.03 194.91 207.00 202.00
M 249.00 197.00 
C 244.73 199.12 241.30 192.74 245.11 190.11 C 248.92 187.47 249.82 193.85 249.00 197.00
M 249.00 233.00 
C 252.22 246.28 237.49 234.24 249.00 233.00
M 250.00 261.00 
C 249.24 263.29 249.19 265.81 248.00 268.00
C 242.18 267.07 244.29 259.24 250.00 261.00
M 249.00 322.00 
C 237.42 319.86 252.99 309.55 249.00 322.00 Z"/>
</g>
<g fill="#FFFFFF" fill-opacity="0.96" stroke="None">
<path d="
M 243.00 167.00 
C 245.31 166.93 249.73 166.90 252.00 167.00
C 275.97 163.11 295.64 144.53 293.99 119.01 C 292.35 93.48 272.68 76.12 248.00 76.00 C 223.32 75.88 203.46 93.96 202.00 119.00 C 200.54 144.04 219.35 162.76 243.00 167.00 Z"/>
</g>
<g fill="#FFFFFF" fill-opacity="0.33" stroke="None">
<path d="
M 243.00 167.00 
C 246.13 167.56 248.83 167.52 252.00 167.00
C 249.73 166.90 245.31 166.93 243.00 167.00 Z"/>
</g>
<g fill="#FFFFFF" fill-opacity="0.87" stroke="None">
<path d="
M 243.00 198.00 
C 245.53 184.22 227.93 179.34 217.00 180.00
C 214.24 188.56 214.24 198.46 217.00 207.00
C 226.89 207.44 235.13 202.86 243.00 198.00 Z"/>
</g>
<g fill="#FFFFFF" fill-opacity="0.96" stroke="None">
<path d="
M 257.00 240.00 
C 256.40 241.04 257.25 242.16 255.00 242.00
C 254.38 241.96 252.54 241.73 252.00 242.00
C 254.33 287.83 252.33 334.75 253.00 381.00
C 279.40 382.04 303.25 373.19 326.00 362.00
C 320.42 346.97 313.56 336.56 301.75 324.25 C 289.95 311.94 296.02 289.72 299.00 274.00 C 301.98 258.28 303.66 239.26 295.00 225.00
C 292.39 220.70 293.93 214.06 295.00 209.00
C 292.78 199.29 303.75 183.71 291.00 180.00
C 287.92 187.21 284.55 195.49 282.99 203.99 C 281.43 212.50 278.61 219.15 271.25 223.25 C 263.89 227.35 262.19 234.61 257.00 240.00
M 296.00 189.00 
C 297.26 196.32 293.06 193.99 296.00 189.00
M 289.00 218.00 
C 284.60 219.04 286.37 214.23 287.00 212.00
C 290.23 211.65 288.57 216.11 289.00 218.00 Z"/>
</g>
<g fill="#FFFFFF" fill-opacity="0.91" stroke="None">
<path d="
M 194.00 197.00 
C 192.72 198.25 191.49 198.19 190.00 199.00
C 189.14 199.65 188.76 200.24 188.00 201.00
C 184.44 210.35 172.00 218.37 166.00 227.00
C 164.92 225.07 164.09 225.54 162.00 226.00
C 161.95 231.49 174.52 231.99 177.00 236.00
C 180.01 231.46 179.75 235.83 183.00 235.00
C 179.88 239.46 172.18 247.02 166.00 251.00
C 166.06 256.78 174.15 264.35 177.00 269.00
C 177.00 268.74 178.37 266.17 179.00 266.00
C 182.27 272.03 187.77 278.44 184.00 281.00
C 185.84 283.86 187.67 287.52 190.00 289.00
C 189.56 287.71 188.70 284.66 190.00 284.00
C 191.91 286.32 191.42 287.93 194.00 290.00
C 192.37 290.01 191.49 288.72 190.00 290.00
C 191.71 294.36 194.67 297.27 197.00 301.00
C 197.23 299.92 199.22 299.61 200.00 299.00
C 201.99 302.68 205.23 309.01 206.06 312.08 C 206.90 315.16 214.89 317.56 210.00 322.00
C 212.88 326.66 215.17 332.09 219.00 336.00
C 221.08 332.77 222.71 335.72 224.00 338.00
C 221.90 338.98 220.76 338.37 219.00 337.00
C 223.79 344.33 228.24 352.54 233.25 359.75 C 238.25 366.96 241.53 377.26 249.00 381.00
C 247.37 352.19 233.55 326.99 225.92 299.08 C 218.30 271.17 209.03 241.77 207.00 212.00
C 206.40 210.04 205.24 209.99 205.00 207.00 C 204.77 204.00 206.62 203.21 207.00 202.00
C 208.03 194.91 208.36 187.60 211.00 181.00
C 203.36 183.89 199.35 191.77 194.00 197.00
M 178.00 232.00 
C 175.18 235.21 174.26 229.11 178.00 232.00
M 198.00 298.00 
C 192.65 298.89 197.15 292.45 198.00 298.00
M 227.00 349.00 
C 226.11 343.65 232.55 348.15 227.00 349.00 Z"/>
</g>
<g fill="#FFFFFF" fill-opacity="0.65" stroke="None">
<path d="
M 249.00 197.00 
C 249.82 193.85 248.92 187.47 245.11 190.11 C 241.30 192.74 244.73 199.12 249.00 197.00 Z"/>
</g>
<g fill="#FFFFFF" fill-opacity="0.64" stroke="None">
<path d="
M 296.00 189.00 
C 293.06 193.99 297.26 196.32 296.00 189.00 Z"/>
</g>
<g fill="#FFFFFF" fill-opacity="0.02" stroke="None">
<path d="
M 190.00 199.00 
C 191.49 198.19 192.72 198.25 194.00 197.00
C 193.01 197.74 191.08 198.18 190.00 199.00 Z"/>
</g>
<g fill="#FFFFFF" fill-opacity="0.41" stroke="None">
<path d="
M 162.00 226.00 
C 164.09 225.54 164.92 225.07 166.00 227.00
C 172.00 218.37 184.44 210.35 188.00 201.00
C 184.61 204.42 177.49 210.02 174.70 213.70 C 171.91 217.38 162.04 221.17 162.00 226.00 Z"/>
</g>
<g fill="#FFFFFF" fill-opacity="0.57" stroke="None">
<path d="
M 207.00 212.00 
C 206.78 208.77 206.78 205.23 207.00 202.00
C 206.62 203.21 204.77 204.00 205.00 207.00 C 205.24 209.99 206.40 210.04 207.00 212.00 Z"/>
</g>
<g fill="#FFFFFF" fill-opacity="0.40" stroke="None">
<path d="
M 295.00 225.00 
C 294.05 220.09 295.00 214.02 295.00 209.00
C 293.93 214.06 292.39 220.70 295.00 225.00 Z"/>
</g>
<g fill="#FFFFFF" fill-opacity="0.42" stroke="None">
<path d="
M 289.00 218.00 
C 288.57 216.11 290.23 211.65 287.00 212.00
C 286.37 214.23 284.60 219.04 289.00 218.00 Z"/>
</g>
<g fill="#FFFFFF" fill-opacity="0.67" stroke="None">
<path d="
M 178.00 232.00 
C 174.26 229.11 175.18 235.21 178.00 232.00 Z"/>
</g>
<g fill="#FFFFFF" fill-opacity="0.55" stroke="None">
<path d="
M 177.00 236.00 
C 175.70 237.96 165.96 247.21 166.00 251.00
C 172.18 247.02 179.88 239.46 183.00 235.00
C 179.75 235.83 180.01 231.46 177.00 236.00 Z"/>
</g>
<g fill="#FFFFFF" fill-opacity="0.20" stroke="None">
<path d="
M 249.00 233.00 
C 237.49 234.24 252.22 246.28 249.00 233.00
M 248.00 234.00 
C 249.97 241.43 242.07 237.08 248.00 234.00 Z"/>
</g>
<g fill="#FFFFFF" fill-opacity="0.93" stroke="None">
<path d="
M 248.00 234.00 
C 242.07 237.08 249.97 241.43 248.00 234.00 Z"/>
</g>
<g fill="#FFFFFF" fill-opacity="0.29" stroke="None">
<path d="
M 255.00 242.00 
C 257.25 242.16 256.40 241.04 257.00 240.00
C 256.96 240.05 254.93 242.02 255.00 242.00 Z"/>
</g>
<g fill="#FFFFFF" fill-opacity="0.39" stroke="None">
<path d="
M 253.00 381.00 
C 252.33 334.75 254.33 287.83 252.00 242.00
C 249.67 256.68 251.67 273.50 251.00 289.00
C 240.62 285.04 245.81 301.82 251.00 291.00
C 251.34 298.17 250.63 307.85 250.80 314.75 C 250.97 321.66 250.74 329.93 251.00 337.00 C 251.26 344.07 250.23 354.79 251.00 361.00 C 251.77 367.21 247.84 378.50 253.00 381.00 Z"/>
</g>
<g fill="#FFFFFF" fill-opacity="0.45" stroke="None">
<path d="
M 250.00 261.00 
C 244.29 259.24 242.18 267.07 248.00 268.00
C 249.19 265.81 249.24 263.29 250.00 261.00 Z"/>
</g>
<g fill="#FFFFFF" fill-opacity="0.55" stroke="None">
<path d="
M 177.00 269.00 
C 179.33 272.81 181.47 277.08 184.00 281.00
C 187.77 278.44 182.27 272.03 179.00 266.00
C 178.37 266.17 177.00 268.74 177.00 269.00 Z"/>
</g>
<g fill="#FFFFFF" fill-opacity="0.66" stroke="None">
<path d="
M 190.00 289.00 
C 190.00 289.00 189.83 289.57 190.00 290.00
C 191.49 288.72 192.37 290.01 194.00 290.00
C 191.42 287.93 191.91 286.32 190.00 284.00
C 188.70 284.66 189.56 287.71 190.00 289.00 Z"/>
</g>
<g fill="#FFFFFF" fill-opacity="0.60" stroke="None">
<path d="
M 198.00 298.00 
C 197.15 292.45 192.65 298.89 198.00 298.00 Z"/>
</g>
<g fill="#FFFFFF" fill-opacity="0.55" stroke="None">
<path d="
M 197.00 301.00 
C 201.37 307.98 205.58 314.86 210.00 322.00
C 214.89 317.56 206.90 315.16 206.06 312.08 C 205.23 309.01 201.99 302.68 200.00 299.00
C 199.22 299.61 197.23 299.92 197.00 301.00 Z"/>
</g>
<g fill="#FFFFFF" fill-opacity="0.44" stroke="None">
<path d="
M 249.00 322.00 
C 252.99 309.55 237.42 319.86 249.00 322.00 Z"/>
</g>
<g fill="#FFFFFF" fill-opacity="0.68" stroke="None">
<path d="
M 219.00 336.00 
C 219.00 336.00 218.84 336.56 219.00 337.00
C 220.76 338.37 221.90 338.98 224.00 338.00
C 222.71 335.72 221.08 332.77 219.00 336.00 Z"/>
</g>
<g fill="#FFFFFF" fill-opacity="0.65" stroke="None">
<path d="
M 227.00 349.00 
C 232.55 348.15 226.11 343.65 227.00 349.00 Z"/>
</g>
</svg>